<?xml version="1.0" encoding="utf-8"?>
<svg version="1.1" xmlns="http://www.w3.org/2000/svg" x="0px" y="0px"
	 viewBox="0 0 600 689.87" style="enable-background:new 0 0 600 689.87;" xml:space="preserve">
<g id="V">
	<path fill="currentColor" d="M77.98,99.12c13.65,0,27.31,0,40.96,0c59.47,151.54,118.94,303.09,178.42,454.63
		c59.91-151.54,119.82-303.09,179.74-454.63c13.22,0,26.43,0,39.65,0C451.54,266.08,386.35,433.04,321.15,600
		c-15.92,0-31.84,0-47.76,0C208.25,433.04,143.11,266.08,77.98,99.12z"/>
</g>
<g id="S">
	<g>
		<path fill="currentColor" d="M122.38,431.24h10.53c2.13,39.09,17.86,71.3,47.17,96.64c28.7,25.04,61.67,37.56,98.93,37.56
			c28.7,0,52.06-8.09,70.07-24.27c18.01-16.18,27.02-35.57,27.02-58.17c0-23.82-8.7-42.29-26.11-55.42
			c-16.8-12.82-49.92-27.32-99.39-43.51c-39.7-13.13-67.94-23.97-84.73-32.52c-19.54-10.08-34.81-23.66-45.8-40.76
			c-11.91-17.4-17.86-36.94-17.86-58.63c0-24.12,8.09-47.78,24.27-70.99c-3.66,11.91-5.5,22.29-5.5,31.14
			c0,23.82,5.65,44.73,16.95,62.75c11.6,18.63,25.95,32.68,43.05,42.14c17.1,9.78,45.64,20.92,85.65,33.43
			c52.21,15.88,89.92,33.43,113.13,52.67c22.29,18.63,33.43,43.67,33.43,75.11c0,30.84-11.61,58.78-34.81,83.82
			c-23.52,25.35-58.63,38.01-105.34,38.01c-18.94,0-45.19-3.51-78.78-10.53c-29.31-6.1-51.3-9.31-65.95-9.62l-3.21-3.66
			c0.3-5.19,0.46-11.91,0.46-20.15c0-9.77-0.92-24.88-2.75-45.34c-1.53-20.45-2.29-35.72-2.29-45.8
			C120.55,452,121.16,440.71,122.38,431.24z M445.74,239.79h-9.62c-0.31-35.42-14.36-61.67-42.14-78.78
			c-27.18-16.79-60.16-25.19-98.93-25.19c-30.84,0-56.18,6.57-76.03,19.69c-20.15,13.13-30.23,28.85-30.23,47.17
			c0,19.54,7.94,34.97,23.82,46.26c16.49,12.22,49.01,26.72,97.56,43.51c45.19,15.57,76.79,28.25,94.81,38.01
			c19.24,10.69,35.27,25.96,48.09,45.8c12.82,20.46,19.24,43.21,19.24,68.24c0,38.17-14.05,68.09-42.14,89.77
			c10.38-14.35,15.57-34.5,15.57-60.46c0-24.42-5.65-46.1-16.95-65.04c-11.91-19.24-26.56-34.5-43.97-45.8
			c-17.71-11.6-46.57-23.97-86.56-37.1c-60.16-19.84-99.39-36.79-117.71-50.84c-18.32-14.35-27.48-36.64-27.48-66.87
			c0-34.81,14.04-62.13,42.14-81.98c28.09-19.24,67.94-28.85,119.54-28.85c35.11,0,78.01,6.11,128.7,18.32v3.21l0.92,17.4
			c0,9.16,0.3,20.15,0.92,32.98c0.92,15.57,1.37,29.31,1.37,41.22C446.65,218.42,446.34,228.19,445.74,239.79z"/>
	</g>
</g>
</svg>
